<mxfile host="app.diagrams.net" modified="2021-04-23T06:57:57.595Z" agent="5.0 (Macintosh; Intel Mac OS X 10_15_7) AppleWebKit/537.36 (KHTML, like Gecko) Chrome/90.0.4430.72 Safari/537.36" etag="T5--sCYB6qQlVYIQxIgY" version="14.2.7" type="github">
  <diagram id="2kbX1E1XRLJPokDe4Fhj" name="第 1 页">
    <mxGraphModel dx="2235" dy="938" grid="1" gridSize="10" guides="1" tooltips="1" connect="1" arrows="1" fold="1" page="1" pageScale="1" pageWidth="827" pageHeight="1169" math="0" shadow="0">
      <root>
        <mxCell id="0" />
        <mxCell id="1" parent="0" />
        <mxCell id="m8hh6OS_aODhGldMMyQQ-11" value="" style="rounded=0;whiteSpace=wrap;html=1;dashed=1;" parent="1" vertex="1">
          <mxGeometry x="150" y="860" width="190" height="140" as="geometry" />
        </mxCell>
        <mxCell id="YYjRhVhqArYzpzuxB-8n-1" value="司机&lt;br&gt;Driver" style="rounded=1;whiteSpace=wrap;html=1;fillColor=#dae8fc;strokeColor=#6c8ebf;" parent="1" vertex="1">
          <mxGeometry x="110" y="170" width="100" height="60" as="geometry" />
        </mxCell>
        <mxCell id="YYjRhVhqArYzpzuxB-8n-2" value="车队&lt;br&gt;Convoy" style="rounded=1;whiteSpace=wrap;html=1;fillColor=#e1d5e7;strokeColor=#9673a6;" parent="1" vertex="1">
          <mxGeometry x="470" y="250" width="100" height="60" as="geometry" />
        </mxCell>
        <mxCell id="YYjRhVhqArYzpzuxB-8n-3" value="车辆&lt;br&gt;Car" style="rounded=1;whiteSpace=wrap;html=1;fillColor=#f8cecc;strokeColor=#b85450;" parent="1" vertex="1">
          <mxGeometry x="120" y="360" width="80" height="70" as="geometry" />
        </mxCell>
        <mxCell id="YYjRhVhqArYzpzuxB-8n-4" value="" style="endArrow=classic;startArrow=classic;html=1;entryX=0;entryY=0.5;entryDx=0;entryDy=0;" parent="1" target="YYjRhVhqArYzpzuxB-8n-2" edge="1">
          <mxGeometry width="50" height="50" relative="1" as="geometry">
            <mxPoint x="210" y="200" as="sourcePoint" />
            <mxPoint x="260" y="150" as="targetPoint" />
          </mxGeometry>
        </mxCell>
        <mxCell id="YYjRhVhqArYzpzuxB-8n-5" value="隶属关系" style="edgeLabel;html=1;align=center;verticalAlign=middle;resizable=0;points=[];" parent="YYjRhVhqArYzpzuxB-8n-4" vertex="1" connectable="0">
          <mxGeometry x="-0.1154" relative="1" as="geometry">
            <mxPoint as="offset" />
          </mxGeometry>
        </mxCell>
        <mxCell id="YYjRhVhqArYzpzuxB-8n-6" value="" style="endArrow=classic;startArrow=classic;html=1;entryX=0;entryY=0.75;entryDx=0;entryDy=0;exitX=1;exitY=0.5;exitDx=0;exitDy=0;" parent="1" source="YYjRhVhqArYzpzuxB-8n-3" target="YYjRhVhqArYzpzuxB-8n-2" edge="1">
          <mxGeometry width="50" height="50" relative="1" as="geometry">
            <mxPoint x="360" y="490" as="sourcePoint" />
            <mxPoint x="690" y="530" as="targetPoint" />
          </mxGeometry>
        </mxCell>
        <mxCell id="YYjRhVhqArYzpzuxB-8n-7" value="隶属关系" style="edgeLabel;html=1;align=center;verticalAlign=middle;resizable=0;points=[];" parent="YYjRhVhqArYzpzuxB-8n-6" vertex="1" connectable="0">
          <mxGeometry x="-0.1154" relative="1" as="geometry">
            <mxPoint as="offset" />
          </mxGeometry>
        </mxCell>
        <mxCell id="YYjRhVhqArYzpzuxB-8n-8" value="" style="endArrow=classic;startArrow=classic;html=1;exitX=0.5;exitY=1;exitDx=0;exitDy=0;entryX=0.5;entryY=0;entryDx=0;entryDy=0;" parent="1" source="YYjRhVhqArYzpzuxB-8n-1" target="YYjRhVhqArYzpzuxB-8n-3" edge="1">
          <mxGeometry width="50" height="50" relative="1" as="geometry">
            <mxPoint x="230" y="540" as="sourcePoint" />
            <mxPoint x="280" y="490" as="targetPoint" />
          </mxGeometry>
        </mxCell>
        <mxCell id="YYjRhVhqArYzpzuxB-8n-9" value="关联关系" style="edgeLabel;html=1;align=center;verticalAlign=middle;resizable=0;points=[];" parent="YYjRhVhqArYzpzuxB-8n-8" vertex="1" connectable="0">
          <mxGeometry x="-0.3539" y="-1" relative="1" as="geometry">
            <mxPoint y="-1" as="offset" />
          </mxGeometry>
        </mxCell>
        <mxCell id="YYjRhVhqArYzpzuxB-8n-11" value="车队司机" style="text;html=1;strokeColor=none;fillColor=none;align=center;verticalAlign=middle;whiteSpace=wrap;rounded=0;" parent="1" vertex="1">
          <mxGeometry x="70" y="110" width="70" height="50" as="geometry" />
        </mxCell>
        <mxCell id="YYjRhVhqArYzpzuxB-8n-24" value="司机&lt;br&gt;Driver" style="rounded=1;whiteSpace=wrap;html=1;fillColor=#dae8fc;strokeColor=#6c8ebf;" parent="1" vertex="1">
          <mxGeometry x="110" y="560" width="100" height="60" as="geometry" />
        </mxCell>
        <mxCell id="YYjRhVhqArYzpzuxB-8n-25" value="车队&lt;br&gt;Convoy" style="rounded=1;whiteSpace=wrap;html=1;fillColor=#e1d5e7;strokeColor=#9673a6;" parent="1" vertex="1">
          <mxGeometry x="470" y="640" width="100" height="60" as="geometry" />
        </mxCell>
        <mxCell id="YYjRhVhqArYzpzuxB-8n-26" value="车辆&lt;br&gt;Car" style="rounded=1;whiteSpace=wrap;html=1;fillColor=#f8cecc;strokeColor=#b85450;" parent="1" vertex="1">
          <mxGeometry x="120" y="750" width="80" height="70" as="geometry" />
        </mxCell>
        <mxCell id="YYjRhVhqArYzpzuxB-8n-27" value="" style="endArrow=classic;startArrow=classic;html=1;entryX=0;entryY=0.5;entryDx=0;entryDy=0;" parent="1" target="YYjRhVhqArYzpzuxB-8n-25" edge="1">
          <mxGeometry width="50" height="50" relative="1" as="geometry">
            <mxPoint x="210" y="590" as="sourcePoint" />
            <mxPoint x="260" y="540" as="targetPoint" />
          </mxGeometry>
        </mxCell>
        <mxCell id="YYjRhVhqArYzpzuxB-8n-28" value="主 共享关系" style="edgeLabel;html=1;align=center;verticalAlign=middle;resizable=0;points=[];" parent="YYjRhVhqArYzpzuxB-8n-27" vertex="1" connectable="0">
          <mxGeometry x="-0.1154" relative="1" as="geometry">
            <mxPoint as="offset" />
          </mxGeometry>
        </mxCell>
        <mxCell id="YYjRhVhqArYzpzuxB-8n-29" value="" style="endArrow=classic;startArrow=classic;html=1;entryX=0;entryY=0.75;entryDx=0;entryDy=0;exitX=1;exitY=0.5;exitDx=0;exitDy=0;" parent="1" source="YYjRhVhqArYzpzuxB-8n-26" target="YYjRhVhqArYzpzuxB-8n-25" edge="1">
          <mxGeometry width="50" height="50" relative="1" as="geometry">
            <mxPoint x="360" y="880" as="sourcePoint" />
            <mxPoint x="690" y="920" as="targetPoint" />
          </mxGeometry>
        </mxCell>
        <mxCell id="YYjRhVhqArYzpzuxB-8n-30" value="副共享关系" style="edgeLabel;html=1;align=center;verticalAlign=middle;resizable=0;points=[];" parent="YYjRhVhqArYzpzuxB-8n-29" vertex="1" connectable="0">
          <mxGeometry x="-0.1154" relative="1" as="geometry">
            <mxPoint as="offset" />
          </mxGeometry>
        </mxCell>
        <mxCell id="YYjRhVhqArYzpzuxB-8n-31" value="" style="endArrow=classic;startArrow=classic;html=1;exitX=0.5;exitY=1;exitDx=0;exitDy=0;entryX=0.5;entryY=0;entryDx=0;entryDy=0;" parent="1" source="YYjRhVhqArYzpzuxB-8n-24" target="YYjRhVhqArYzpzuxB-8n-26" edge="1">
          <mxGeometry width="50" height="50" relative="1" as="geometry">
            <mxPoint x="230" y="930" as="sourcePoint" />
            <mxPoint x="280" y="880" as="targetPoint" />
          </mxGeometry>
        </mxCell>
        <mxCell id="YYjRhVhqArYzpzuxB-8n-32" value="关联关系" style="edgeLabel;html=1;align=center;verticalAlign=middle;resizable=0;points=[];" parent="YYjRhVhqArYzpzuxB-8n-31" vertex="1" connectable="0">
          <mxGeometry x="-0.3539" y="-1" relative="1" as="geometry">
            <mxPoint y="-1" as="offset" />
          </mxGeometry>
        </mxCell>
        <mxCell id="YYjRhVhqArYzpzuxB-8n-33" value="平台司机" style="text;html=1;strokeColor=none;fillColor=none;align=center;verticalAlign=middle;whiteSpace=wrap;rounded=0;" parent="1" vertex="1">
          <mxGeometry x="70" y="500" width="70" height="50" as="geometry" />
        </mxCell>
        <mxCell id="YYjRhVhqArYzpzuxB-8n-37" value="" style="edgeStyle=orthogonalEdgeStyle;rounded=0;orthogonalLoop=1;jettySize=auto;html=1;" parent="1" source="YYjRhVhqArYzpzuxB-8n-34" target="YYjRhVhqArYzpzuxB-8n-36" edge="1">
          <mxGeometry relative="1" as="geometry" />
        </mxCell>
        <mxCell id="m8hh6OS_aODhGldMMyQQ-2" style="edgeStyle=orthogonalEdgeStyle;rounded=0;orthogonalLoop=1;jettySize=auto;html=1;exitX=1;exitY=0.5;exitDx=0;exitDy=0;entryX=0;entryY=0.5;entryDx=0;entryDy=0;" parent="1" source="YYjRhVhqArYzpzuxB-8n-34" target="m8hh6OS_aODhGldMMyQQ-1" edge="1">
          <mxGeometry relative="1" as="geometry" />
        </mxCell>
        <mxCell id="m8hh6OS_aODhGldMMyQQ-3" value="公海" style="edgeLabel;html=1;align=center;verticalAlign=middle;resizable=0;points=[];" parent="m8hh6OS_aODhGldMMyQQ-2" vertex="1" connectable="0">
          <mxGeometry x="0.219" y="1" relative="1" as="geometry">
            <mxPoint as="offset" />
          </mxGeometry>
        </mxCell>
        <mxCell id="YYjRhVhqArYzpzuxB-8n-34" value="更新司机" style="rounded=1;whiteSpace=wrap;html=1;" parent="1" vertex="1">
          <mxGeometry x="405" y="940" width="90" height="50" as="geometry" />
        </mxCell>
        <mxCell id="YYjRhVhqArYzpzuxB-8n-48" style="edgeStyle=orthogonalEdgeStyle;rounded=0;orthogonalLoop=1;jettySize=auto;html=1;entryX=0.5;entryY=0;entryDx=0;entryDy=0;" parent="1" source="YYjRhVhqArYzpzuxB-8n-35" target="YYjRhVhqArYzpzuxB-8n-34" edge="1">
          <mxGeometry relative="1" as="geometry" />
        </mxCell>
        <mxCell id="YYjRhVhqArYzpzuxB-8n-35" value="开始" style="ellipse;whiteSpace=wrap;html=1;aspect=fixed;" parent="1" vertex="1">
          <mxGeometry x="430" y="860" width="40" height="40" as="geometry" />
        </mxCell>
        <mxCell id="YYjRhVhqArYzpzuxB-8n-47" value="" style="edgeStyle=orthogonalEdgeStyle;rounded=0;orthogonalLoop=1;jettySize=auto;html=1;" parent="1" source="YYjRhVhqArYzpzuxB-8n-36" target="YYjRhVhqArYzpzuxB-8n-46" edge="1">
          <mxGeometry relative="1" as="geometry" />
        </mxCell>
        <mxCell id="YYjRhVhqArYzpzuxB-8n-60" style="edgeStyle=orthogonalEdgeStyle;rounded=0;orthogonalLoop=1;jettySize=auto;html=1;exitX=1;exitY=0.5;exitDx=0;exitDy=0;entryX=1;entryY=0.5;entryDx=0;entryDy=0;" parent="1" source="YYjRhVhqArYzpzuxB-8n-36" target="YYjRhVhqArYzpzuxB-8n-38" edge="1">
          <mxGeometry relative="1" as="geometry">
            <Array as="points">
              <mxPoint x="640" y="1073" />
              <mxPoint x="640" y="1670" />
            </Array>
          </mxGeometry>
        </mxCell>
        <mxCell id="YYjRhVhqArYzpzuxB-8n-61" value="否" style="edgeLabel;html=1;align=center;verticalAlign=middle;resizable=0;points=[];" parent="YYjRhVhqArYzpzuxB-8n-60" vertex="1" connectable="0">
          <mxGeometry x="0.0346" y="3" relative="1" as="geometry">
            <mxPoint as="offset" />
          </mxGeometry>
        </mxCell>
        <mxCell id="YYjRhVhqArYzpzuxB-8n-36" value="是否更新车辆信息" style="rhombus;whiteSpace=wrap;html=1;rounded=1;" parent="1" vertex="1">
          <mxGeometry x="410" y="1045" width="80" height="55" as="geometry" />
        </mxCell>
        <mxCell id="YYjRhVhqArYzpzuxB-8n-38" value="结束" style="ellipse;whiteSpace=wrap;html=1;aspect=fixed;" parent="1" vertex="1">
          <mxGeometry x="430" y="1650" width="40" height="40" as="geometry" />
        </mxCell>
        <mxCell id="YYjRhVhqArYzpzuxB-8n-54" style="edgeStyle=orthogonalEdgeStyle;rounded=0;orthogonalLoop=1;jettySize=auto;html=1;exitX=0.5;exitY=1;exitDx=0;exitDy=0;entryX=0;entryY=0.5;entryDx=0;entryDy=0;" parent="1" source="YYjRhVhqArYzpzuxB-8n-41" target="YYjRhVhqArYzpzuxB-8n-49" edge="1">
          <mxGeometry relative="1" as="geometry" />
        </mxCell>
        <mxCell id="YYjRhVhqArYzpzuxB-8n-41" value="删除旧车辆的公海关系" style="whiteSpace=wrap;html=1;rounded=1;fillColor=#d80073;strokeColor=#A50040;fontColor=#ffffff;" parent="1" vertex="1">
          <mxGeometry x="260" y="1230" width="120" height="52.5" as="geometry" />
        </mxCell>
        <mxCell id="YYjRhVhqArYzpzuxB-8n-44" value="新车旧的公海关系&lt;br&gt;怎么处理？" style="whiteSpace=wrap;html=1;rounded=1;" parent="1" vertex="1">
          <mxGeometry x="260" y="1430" width="120" height="60" as="geometry" />
        </mxCell>
        <mxCell id="YYjRhVhqArYzpzuxB-8n-50" style="edgeStyle=orthogonalEdgeStyle;rounded=0;orthogonalLoop=1;jettySize=auto;html=1;exitX=0.5;exitY=1;exitDx=0;exitDy=0;entryX=0.5;entryY=0;entryDx=0;entryDy=0;" parent="1" source="YYjRhVhqArYzpzuxB-8n-46" target="YYjRhVhqArYzpzuxB-8n-49" edge="1">
          <mxGeometry relative="1" as="geometry" />
        </mxCell>
        <mxCell id="YYjRhVhqArYzpzuxB-8n-51" value="否" style="edgeLabel;html=1;align=center;verticalAlign=middle;resizable=0;points=[];" parent="YYjRhVhqArYzpzuxB-8n-50" vertex="1" connectable="0">
          <mxGeometry x="-0.1765" relative="1" as="geometry">
            <mxPoint as="offset" />
          </mxGeometry>
        </mxCell>
        <mxCell id="YYjRhVhqArYzpzuxB-8n-52" style="edgeStyle=orthogonalEdgeStyle;rounded=0;orthogonalLoop=1;jettySize=auto;html=1;exitX=0;exitY=0.5;exitDx=0;exitDy=0;entryX=0.5;entryY=0;entryDx=0;entryDy=0;" parent="1" source="YYjRhVhqArYzpzuxB-8n-46" target="YYjRhVhqArYzpzuxB-8n-41" edge="1">
          <mxGeometry relative="1" as="geometry" />
        </mxCell>
        <mxCell id="YYjRhVhqArYzpzuxB-8n-53" value="是" style="edgeLabel;html=1;align=center;verticalAlign=middle;resizable=0;points=[];" parent="YYjRhVhqArYzpzuxB-8n-52" vertex="1" connectable="0">
          <mxGeometry x="-0.1579" y="1" relative="1" as="geometry">
            <mxPoint as="offset" />
          </mxGeometry>
        </mxCell>
        <mxCell id="YYjRhVhqArYzpzuxB-8n-46" value="是否有旧的车辆" style="rhombus;whiteSpace=wrap;html=1;rounded=1;" parent="1" vertex="1">
          <mxGeometry x="410" y="1150" width="80" height="55" as="geometry" />
        </mxCell>
        <mxCell id="YYjRhVhqArYzpzuxB-8n-56" style="edgeStyle=orthogonalEdgeStyle;rounded=0;orthogonalLoop=1;jettySize=auto;html=1;exitX=0.5;exitY=1;exitDx=0;exitDy=0;entryX=0.5;entryY=0;entryDx=0;entryDy=0;" parent="1" source="YYjRhVhqArYzpzuxB-8n-49" target="YYjRhVhqArYzpzuxB-8n-44" edge="1">
          <mxGeometry relative="1" as="geometry" />
        </mxCell>
        <mxCell id="YYjRhVhqArYzpzuxB-8n-57" value="是" style="edgeLabel;html=1;align=center;verticalAlign=middle;resizable=0;points=[];" parent="YYjRhVhqArYzpzuxB-8n-56" vertex="1" connectable="0">
          <mxGeometry x="0.1641" y="-2" relative="1" as="geometry">
            <mxPoint x="-1" as="offset" />
          </mxGeometry>
        </mxCell>
        <mxCell id="YYjRhVhqArYzpzuxB-8n-58" style="edgeStyle=orthogonalEdgeStyle;rounded=0;orthogonalLoop=1;jettySize=auto;html=1;exitX=0.5;exitY=1;exitDx=0;exitDy=0;" parent="1" source="YYjRhVhqArYzpzuxB-8n-49" edge="1">
          <mxGeometry relative="1" as="geometry">
            <mxPoint x="450" y="1650" as="targetPoint" />
          </mxGeometry>
        </mxCell>
        <mxCell id="YYjRhVhqArYzpzuxB-8n-59" value="否" style="edgeLabel;html=1;align=center;verticalAlign=middle;resizable=0;points=[];" parent="YYjRhVhqArYzpzuxB-8n-58" vertex="1" connectable="0">
          <mxGeometry x="0.1237" y="4" relative="1" as="geometry">
            <mxPoint as="offset" />
          </mxGeometry>
        </mxCell>
        <mxCell id="YYjRhVhqArYzpzuxB-8n-49" value="是否有新的车辆信息" style="rhombus;whiteSpace=wrap;html=1;rounded=1;" parent="1" vertex="1">
          <mxGeometry x="410" y="1310" width="80" height="55" as="geometry" />
        </mxCell>
        <mxCell id="YYjRhVhqArYzpzuxB-8n-62" style="edgeStyle=orthogonalEdgeStyle;rounded=0;orthogonalLoop=1;jettySize=auto;html=1;exitX=0.5;exitY=1;exitDx=0;exitDy=0;entryX=0;entryY=0.5;entryDx=0;entryDy=0;" parent="1" source="YYjRhVhqArYzpzuxB-8n-55" target="YYjRhVhqArYzpzuxB-8n-38" edge="1">
          <mxGeometry relative="1" as="geometry" />
        </mxCell>
        <mxCell id="YYjRhVhqArYzpzuxB-8n-55" value="司机的公海关系&lt;br&gt;怎么处理？" style="whiteSpace=wrap;html=1;rounded=1;fillColor=#d80073;strokeColor=#A50040;fontColor=#ffffff;" parent="1" vertex="1">
          <mxGeometry x="260" y="1520" width="120" height="60" as="geometry" />
        </mxCell>
        <mxCell id="m8hh6OS_aODhGldMMyQQ-1" value="车队&lt;br&gt;Convoy" style="rounded=1;whiteSpace=wrap;html=1;fillColor=#e1d5e7;strokeColor=#9673a6;" parent="1" vertex="1">
          <mxGeometry x="600" y="935" width="100" height="60" as="geometry" />
        </mxCell>
        <mxCell id="m8hh6OS_aODhGldMMyQQ-4" value="&lt;div class=&quot;msg-content scaleable&quot; style=&quot;box-sizing: border-box ; margin: 0px ; padding: 0px ; overflow-wrap: break-word ; position: relative ; max-width: 640px ; min-width: 10px ; color: rgb(17 , 31 , 44) ; font-family: , , &amp;#34;pingfang sc&amp;#34; , &amp;#34;hiragino sans gb&amp;#34; , &amp;#34;segoe ui&amp;#34; , , &amp;#34;roboto&amp;#34; , &amp;#34;droid sans&amp;#34; , &amp;#34;helvetica neue&amp;#34; , sans-serif ; font-size: 14px ; text-align: left ; background-color: rgb(242 , 244 , 245)&quot;&gt;&lt;div class=&quot;msg-text normal-text text-msg-over-hidden&quot; style=&quot;box-sizing: border-box ; margin: 0px ; padding: 8px 12px ; border-radius: 3px 9px 9px ; border: 1px solid ; overflow: hidden&quot;&gt;&lt;div class=&quot;origin-content&quot; style=&quot;box-sizing: border-box ; margin: 0px ; padding: 0px&quot;&gt;平台司机添加&lt;/div&gt;&lt;div class=&quot;origin-content&quot; style=&quot;box-sizing: border-box ; margin: 0px ; padding: 0px&quot;&gt;&lt;br&gt;&lt;/div&gt;&lt;div class=&quot;origin-content&quot; style=&quot;box-sizing: border-box ; margin: 0px ; padding: 0px&quot;&gt;公海车辆&lt;/div&gt;&lt;div class=&quot;origin-content&quot; style=&quot;box-sizing: border-box ; margin: 0px ; padding: 0px&quot;&gt;&lt;br&gt;&lt;/div&gt;&lt;div class=&quot;origin-content&quot; style=&quot;box-sizing: border-box ; margin: 0px ; padding: 0px&quot;&gt;后，提示并自动勾选上公海司机&lt;/div&gt;&lt;div&gt;&lt;br&gt;&lt;/div&gt;&lt;div class=&quot;interaction-info&quot; style=&quot;box-sizing: border-box ; margin: 0px ; padding: 0px ; display: flex ; flex-direction: row ; align-items: center ; border-radius: 3px&quot;&gt;&lt;div class=&quot;interaction-info-wrap&quot; style=&quot;box-sizing: border-box ; margin: 0px ; padding: 0px ; display: flex&quot;&gt;&lt;/div&gt;&lt;/div&gt;&lt;/div&gt;&lt;/div&gt;&lt;div class=&quot;msg-operation &quot; style=&quot;box-sizing: border-box ; margin: 0px ; padding: 0px 4px ; display: flex ; flex-direction: row ; color: rgb(17 , 31 , 44) ; font-family: , , &amp;#34;pingfang sc&amp;#34; , &amp;#34;hiragino sans gb&amp;#34; , &amp;#34;segoe ui&amp;#34; , , &amp;#34;roboto&amp;#34; , &amp;#34;droid sans&amp;#34; , &amp;#34;helvetica neue&amp;#34; , sans-serif ; font-size: 14px ; text-align: left ; background-color: rgb(242 , 244 , 245)&quot;&gt;&lt;/div&gt;" style="text;html=1;strokeColor=none;fillColor=none;align=center;verticalAlign=middle;whiteSpace=wrap;rounded=0;" parent="1" vertex="1">
          <mxGeometry x="-165" y="1045" width="235" height="25" as="geometry" />
        </mxCell>
        <mxCell id="m8hh6OS_aODhGldMMyQQ-12" value="建立关系" style="edgeStyle=orthogonalEdgeStyle;rounded=0;orthogonalLoop=1;jettySize=auto;html=1;exitX=1;exitY=0.5;exitDx=0;exitDy=0;entryX=0;entryY=0.5;entryDx=0;entryDy=0;" parent="1" source="m8hh6OS_aODhGldMMyQQ-6" target="YYjRhVhqArYzpzuxB-8n-55" edge="1">
          <mxGeometry relative="1" as="geometry" />
        </mxCell>
        <mxCell id="m8hh6OS_aODhGldMMyQQ-6" value="新的车辆" style="rounded=1;whiteSpace=wrap;html=1;fillColor=#f8cecc;strokeColor=#b85450;" parent="1" vertex="1">
          <mxGeometry x="110" y="1511" width="80" height="70" as="geometry" />
        </mxCell>
        <mxCell id="m8hh6OS_aODhGldMMyQQ-10" style="edgeStyle=orthogonalEdgeStyle;rounded=0;orthogonalLoop=1;jettySize=auto;html=1;exitX=1;exitY=0.5;exitDx=0;exitDy=0;entryX=0;entryY=0.5;entryDx=0;entryDy=0;" parent="1" source="m8hh6OS_aODhGldMMyQQ-7" target="m8hh6OS_aODhGldMMyQQ-6" edge="1">
          <mxGeometry relative="1" as="geometry" />
        </mxCell>
        <mxCell id="m8hh6OS_aODhGldMMyQQ-7" value="车队2&lt;br&gt;Convoy" style="rounded=1;whiteSpace=wrap;html=1;fillColor=#e1d5e7;strokeColor=#9673a6;" parent="1" vertex="1">
          <mxGeometry x="-50" y="1516" width="100" height="60" as="geometry" />
        </mxCell>
        <mxCell id="m8hh6OS_aODhGldMMyQQ-9" style="edgeStyle=orthogonalEdgeStyle;rounded=0;orthogonalLoop=1;jettySize=auto;html=1;" parent="1" source="m8hh6OS_aODhGldMMyQQ-8" target="YYjRhVhqArYzpzuxB-8n-34" edge="1">
          <mxGeometry relative="1" as="geometry" />
        </mxCell>
        <mxCell id="m8hh6OS_aODhGldMMyQQ-8" value="车队1&lt;br&gt;Convoy" style="rounded=1;whiteSpace=wrap;html=1;fillColor=#e1d5e7;strokeColor=#9673a6;" parent="1" vertex="1">
          <mxGeometry x="190" y="900" width="100" height="60" as="geometry" />
        </mxCell>
        <mxCell id="m8hh6OS_aODhGldMMyQQ-15" value="" style="endArrow=classic;startArrow=classic;html=1;" parent="1" edge="1">
          <mxGeometry width="50" height="50" relative="1" as="geometry">
            <mxPoint x="-10" y="1511" as="sourcePoint" />
            <mxPoint x="410" y="1000" as="targetPoint" />
          </mxGeometry>
        </mxCell>
        <mxCell id="srrPBb_LImf4COK4saE4-1" value="车队端&lt;br&gt;微信小程序" style="rounded=0;whiteSpace=wrap;html=1;" vertex="1" parent="1">
          <mxGeometry x="-660" y="1810" width="120" height="60" as="geometry" />
        </mxCell>
        <mxCell id="srrPBb_LImf4COK4saE4-10" style="edgeStyle=orthogonalEdgeStyle;rounded=0;orthogonalLoop=1;jettySize=auto;html=1;exitX=1;exitY=0.5;exitDx=0;exitDy=0;entryX=0;entryY=0.5;entryDx=0;entryDy=0;" edge="1" parent="1" source="srrPBb_LImf4COK4saE4-2" target="srrPBb_LImf4COK4saE4-8">
          <mxGeometry relative="1" as="geometry" />
        </mxCell>
        <mxCell id="srrPBb_LImf4COK4saE4-11" style="edgeStyle=orthogonalEdgeStyle;rounded=0;orthogonalLoop=1;jettySize=auto;html=1;exitX=1;exitY=0.5;exitDx=0;exitDy=0;entryX=0;entryY=0.5;entryDx=0;entryDy=0;" edge="1" parent="1" source="srrPBb_LImf4COK4saE4-2" target="srrPBb_LImf4COK4saE4-9">
          <mxGeometry relative="1" as="geometry" />
        </mxCell>
        <mxCell id="srrPBb_LImf4COK4saE4-2" value="司机列表" style="rounded=1;whiteSpace=wrap;html=1;" vertex="1" parent="1">
          <mxGeometry x="-510" y="1950" width="100" height="40" as="geometry" />
        </mxCell>
        <mxCell id="srrPBb_LImf4COK4saE4-6" style="edgeStyle=orthogonalEdgeStyle;rounded=0;orthogonalLoop=1;jettySize=auto;html=1;exitX=1;exitY=0.5;exitDx=0;exitDy=0;entryX=0;entryY=0.5;entryDx=0;entryDy=0;" edge="1" parent="1" source="srrPBb_LImf4COK4saE4-3" target="srrPBb_LImf4COK4saE4-4">
          <mxGeometry relative="1" as="geometry" />
        </mxCell>
        <mxCell id="srrPBb_LImf4COK4saE4-7" style="edgeStyle=orthogonalEdgeStyle;rounded=0;orthogonalLoop=1;jettySize=auto;html=1;exitX=1;exitY=0.5;exitDx=0;exitDy=0;entryX=0;entryY=0.5;entryDx=0;entryDy=0;" edge="1" parent="1" source="srrPBb_LImf4COK4saE4-3" target="srrPBb_LImf4COK4saE4-5">
          <mxGeometry relative="1" as="geometry" />
        </mxCell>
        <mxCell id="srrPBb_LImf4COK4saE4-3" value="车辆列表" style="rounded=1;whiteSpace=wrap;html=1;" vertex="1" parent="1">
          <mxGeometry x="-510" y="2060" width="100" height="40" as="geometry" />
        </mxCell>
        <mxCell id="srrPBb_LImf4COK4saE4-4" value="展示" style="rounded=1;whiteSpace=wrap;html=1;" vertex="1" parent="1">
          <mxGeometry x="-300" y="2060" width="100" height="40" as="geometry" />
        </mxCell>
        <mxCell id="srrPBb_LImf4COK4saE4-5" value="创建" style="rounded=1;whiteSpace=wrap;html=1;" vertex="1" parent="1">
          <mxGeometry x="-300" y="2130" width="100" height="40" as="geometry" />
        </mxCell>
        <mxCell id="srrPBb_LImf4COK4saE4-8" value="展示" style="rounded=1;whiteSpace=wrap;html=1;" vertex="1" parent="1">
          <mxGeometry x="-300" y="1900" width="100" height="40" as="geometry" />
        </mxCell>
        <mxCell id="srrPBb_LImf4COK4saE4-9" value="创建" style="rounded=1;whiteSpace=wrap;html=1;" vertex="1" parent="1">
          <mxGeometry x="-300" y="1970" width="100" height="40" as="geometry" />
        </mxCell>
        <mxCell id="srrPBb_LImf4COK4saE4-14" value="" style="edgeStyle=orthogonalEdgeStyle;rounded=0;orthogonalLoop=1;jettySize=auto;html=1;" edge="1" parent="1" source="srrPBb_LImf4COK4saE4-12" target="srrPBb_LImf4COK4saE4-13">
          <mxGeometry relative="1" as="geometry" />
        </mxCell>
        <mxCell id="srrPBb_LImf4COK4saE4-12" value="派单给司机" style="rounded=1;whiteSpace=wrap;html=1;" vertex="1" parent="1">
          <mxGeometry x="90" y="1830" width="100" height="40" as="geometry" />
        </mxCell>
        <mxCell id="srrPBb_LImf4COK4saE4-16" value="" style="edgeStyle=orthogonalEdgeStyle;rounded=0;orthogonalLoop=1;jettySize=auto;html=1;" edge="1" parent="1" source="srrPBb_LImf4COK4saE4-13" target="srrPBb_LImf4COK4saE4-15">
          <mxGeometry relative="1" as="geometry" />
        </mxCell>
        <mxCell id="srrPBb_LImf4COK4saE4-13" value="按照信息进行搜索" style="whiteSpace=wrap;html=1;rounded=1;" vertex="1" parent="1">
          <mxGeometry x="80" y="1940" width="120" height="60" as="geometry" />
        </mxCell>
        <mxCell id="srrPBb_LImf4COK4saE4-18" value="" style="edgeStyle=orthogonalEdgeStyle;rounded=0;orthogonalLoop=1;jettySize=auto;html=1;" edge="1" parent="1" source="srrPBb_LImf4COK4saE4-15" target="srrPBb_LImf4COK4saE4-17">
          <mxGeometry relative="1" as="geometry" />
        </mxCell>
        <mxCell id="srrPBb_LImf4COK4saE4-19" value="是" style="edgeLabel;html=1;align=center;verticalAlign=middle;resizable=0;points=[];" vertex="1" connectable="0" parent="srrPBb_LImf4COK4saE4-18">
          <mxGeometry x="-0.0933" y="4" relative="1" as="geometry">
            <mxPoint as="offset" />
          </mxGeometry>
        </mxCell>
        <mxCell id="srrPBb_LImf4COK4saE4-24" value="" style="edgeStyle=orthogonalEdgeStyle;rounded=0;orthogonalLoop=1;jettySize=auto;html=1;" edge="1" parent="1" source="srrPBb_LImf4COK4saE4-15" target="srrPBb_LImf4COK4saE4-23">
          <mxGeometry relative="1" as="geometry" />
        </mxCell>
        <mxCell id="srrPBb_LImf4COK4saE4-15" value="司机是否存在？" style="rhombus;whiteSpace=wrap;html=1;rounded=1;" vertex="1" parent="1">
          <mxGeometry x="100" y="2070" width="80" height="50" as="geometry" />
        </mxCell>
        <mxCell id="srrPBb_LImf4COK4saE4-21" style="edgeStyle=orthogonalEdgeStyle;rounded=0;orthogonalLoop=1;jettySize=auto;html=1;exitX=0.5;exitY=1;exitDx=0;exitDy=0;entryX=0.5;entryY=0;entryDx=0;entryDy=0;" edge="1" parent="1" source="srrPBb_LImf4COK4saE4-17" target="srrPBb_LImf4COK4saE4-20">
          <mxGeometry relative="1" as="geometry" />
        </mxCell>
        <mxCell id="srrPBb_LImf4COK4saE4-17" value="进行勾选" style="whiteSpace=wrap;html=1;rounded=1;" vertex="1" parent="1">
          <mxGeometry x="80" y="2635" width="120" height="60" as="geometry" />
        </mxCell>
        <mxCell id="srrPBb_LImf4COK4saE4-20" value="结束" style="ellipse;whiteSpace=wrap;html=1;aspect=fixed;" vertex="1" parent="1">
          <mxGeometry x="115" y="2770" width="50" height="50" as="geometry" />
        </mxCell>
        <mxCell id="srrPBb_LImf4COK4saE4-26" value="" style="edgeStyle=orthogonalEdgeStyle;rounded=0;orthogonalLoop=1;jettySize=auto;html=1;" edge="1" parent="1" source="srrPBb_LImf4COK4saE4-23" target="srrPBb_LImf4COK4saE4-25">
          <mxGeometry relative="1" as="geometry" />
        </mxCell>
        <mxCell id="srrPBb_LImf4COK4saE4-23" value="开始创建司机" style="whiteSpace=wrap;html=1;rounded=1;" vertex="1" parent="1">
          <mxGeometry x="240" y="2065" width="120" height="60" as="geometry" />
        </mxCell>
        <mxCell id="srrPBb_LImf4COK4saE4-32" value="" style="edgeStyle=orthogonalEdgeStyle;rounded=0;orthogonalLoop=1;jettySize=auto;html=1;" edge="1" parent="1" source="srrPBb_LImf4COK4saE4-25" target="srrPBb_LImf4COK4saE4-31">
          <mxGeometry relative="1" as="geometry" />
        </mxCell>
        <mxCell id="srrPBb_LImf4COK4saE4-35" style="edgeStyle=orthogonalEdgeStyle;rounded=0;orthogonalLoop=1;jettySize=auto;html=1;exitX=1;exitY=0.5;exitDx=0;exitDy=0;entryX=0.5;entryY=0;entryDx=0;entryDy=0;" edge="1" parent="1" source="srrPBb_LImf4COK4saE4-25" target="srrPBb_LImf4COK4saE4-31">
          <mxGeometry relative="1" as="geometry" />
        </mxCell>
        <mxCell id="srrPBb_LImf4COK4saE4-25" value="是否有手机号？" style="rhombus;whiteSpace=wrap;html=1;rounded=1;" vertex="1" parent="1">
          <mxGeometry x="260" y="2195" width="80" height="35" as="geometry" />
        </mxCell>
        <mxCell id="srrPBb_LImf4COK4saE4-34" value="" style="edgeStyle=orthogonalEdgeStyle;rounded=0;orthogonalLoop=1;jettySize=auto;html=1;" edge="1" parent="1" source="srrPBb_LImf4COK4saE4-31" target="srrPBb_LImf4COK4saE4-33">
          <mxGeometry relative="1" as="geometry" />
        </mxCell>
        <mxCell id="srrPBb_LImf4COK4saE4-31" value="选择车辆" style="whiteSpace=wrap;html=1;rounded=1;" vertex="1" parent="1">
          <mxGeometry x="245" y="2297.5" width="110" height="32.5" as="geometry" />
        </mxCell>
        <mxCell id="srrPBb_LImf4COK4saE4-41" value="" style="edgeStyle=orthogonalEdgeStyle;rounded=0;orthogonalLoop=1;jettySize=auto;html=1;" edge="1" parent="1" source="srrPBb_LImf4COK4saE4-33" target="srrPBb_LImf4COK4saE4-40">
          <mxGeometry relative="1" as="geometry" />
        </mxCell>
        <mxCell id="srrPBb_LImf4COK4saE4-51" value="不存在" style="edgeLabel;html=1;align=center;verticalAlign=middle;resizable=0;points=[];" vertex="1" connectable="0" parent="srrPBb_LImf4COK4saE4-41">
          <mxGeometry x="-0.4" y="-4" relative="1" as="geometry">
            <mxPoint as="offset" />
          </mxGeometry>
        </mxCell>
        <mxCell id="srrPBb_LImf4COK4saE4-45" style="edgeStyle=orthogonalEdgeStyle;rounded=0;orthogonalLoop=1;jettySize=auto;html=1;exitX=0.5;exitY=1;exitDx=0;exitDy=0;entryX=0.5;entryY=0;entryDx=0;entryDy=0;" edge="1" parent="1" source="srrPBb_LImf4COK4saE4-33" target="srrPBb_LImf4COK4saE4-36">
          <mxGeometry relative="1" as="geometry" />
        </mxCell>
        <mxCell id="srrPBb_LImf4COK4saE4-46" value="存在" style="edgeLabel;html=1;align=center;verticalAlign=middle;resizable=0;points=[];" vertex="1" connectable="0" parent="srrPBb_LImf4COK4saE4-45">
          <mxGeometry x="-0.2549" relative="1" as="geometry">
            <mxPoint as="offset" />
          </mxGeometry>
        </mxCell>
        <mxCell id="srrPBb_LImf4COK4saE4-33" value="是否存在？" style="rhombus;whiteSpace=wrap;html=1;rounded=1;" vertex="1" parent="1">
          <mxGeometry x="450" y="2273.75" width="80" height="80" as="geometry" />
        </mxCell>
        <mxCell id="srrPBb_LImf4COK4saE4-48" style="edgeStyle=orthogonalEdgeStyle;rounded=0;orthogonalLoop=1;jettySize=auto;html=1;exitX=0.5;exitY=1;exitDx=0;exitDy=0;entryX=0.558;entryY=-0.05;entryDx=0;entryDy=0;entryPerimeter=0;" edge="1" parent="1">
          <mxGeometry relative="1" as="geometry">
            <mxPoint x="300" y="2460" as="sourcePoint" />
            <mxPoint x="301.96000000000004" y="2527" as="targetPoint" />
          </mxGeometry>
        </mxCell>
        <mxCell id="srrPBb_LImf4COK4saE4-36" value="勾选车辆&lt;br&gt;拿到car_id" style="whiteSpace=wrap;html=1;rounded=1;" vertex="1" parent="1">
          <mxGeometry x="245" y="2400" width="120" height="60" as="geometry" />
        </mxCell>
        <mxCell id="srrPBb_LImf4COK4saE4-43" style="edgeStyle=orthogonalEdgeStyle;rounded=0;orthogonalLoop=1;jettySize=auto;html=1;exitX=0.5;exitY=1;exitDx=0;exitDy=0;entryX=1;entryY=0.5;entryDx=0;entryDy=0;" edge="1" parent="1" source="srrPBb_LImf4COK4saE4-40" target="srrPBb_LImf4COK4saE4-36">
          <mxGeometry relative="1" as="geometry" />
        </mxCell>
        <mxCell id="srrPBb_LImf4COK4saE4-44" value="创建成功" style="edgeLabel;html=1;align=center;verticalAlign=middle;resizable=0;points=[];" vertex="1" connectable="0" parent="srrPBb_LImf4COK4saE4-43">
          <mxGeometry x="-0.398" y="2" relative="1" as="geometry">
            <mxPoint as="offset" />
          </mxGeometry>
        </mxCell>
        <mxCell id="srrPBb_LImf4COK4saE4-40" value="创建车辆" style="whiteSpace=wrap;html=1;rounded=1;" vertex="1" parent="1">
          <mxGeometry x="600" y="2283.75" width="120" height="60" as="geometry" />
        </mxCell>
        <mxCell id="srrPBb_LImf4COK4saE4-49" style="edgeStyle=orthogonalEdgeStyle;rounded=0;orthogonalLoop=1;jettySize=auto;html=1;exitX=0.5;exitY=1;exitDx=0;exitDy=0;entryX=1;entryY=0.5;entryDx=0;entryDy=0;" edge="1" parent="1" source="srrPBb_LImf4COK4saE4-47" target="srrPBb_LImf4COK4saE4-17">
          <mxGeometry relative="1" as="geometry" />
        </mxCell>
        <mxCell id="srrPBb_LImf4COK4saE4-50" value="拿到司机" style="edgeLabel;html=1;align=center;verticalAlign=middle;resizable=0;points=[];" vertex="1" connectable="0" parent="srrPBb_LImf4COK4saE4-49">
          <mxGeometry x="-0.3257" y="-3" relative="1" as="geometry">
            <mxPoint as="offset" />
          </mxGeometry>
        </mxCell>
        <mxCell id="srrPBb_LImf4COK4saE4-47" value="司机创建" style="whiteSpace=wrap;html=1;rounded=1;" vertex="1" parent="1">
          <mxGeometry x="240" y="2530" width="120" height="60" as="geometry" />
        </mxCell>
      </root>
    </mxGraphModel>
  </diagram>
</mxfile>
